<?xml version="1.0" encoding="utf-8"?>
<!-- Generator: Adobe Illustrator 16.0.0, SVG Export Plug-In . SVG Version: 6.00 Build 0)  -->
<!DOCTYPE svg PUBLIC "-//W3C//DTD SVG 1.1//EN" "http://www.w3.org/Graphics/SVG/1.1/DTD/svg11.dtd">
<svg version="1.1" id="Layer_1" xmlns="http://www.w3.org/2000/svg" xmlns:xlink="http://www.w3.org/1999/xlink" x="0px" y="0px"
	 width="199.781px" height="103.54px" viewBox="0 0 199.781 103.54" enable-background="new 0 0 199.781 103.54"
	 xml:space="preserve">
<path fill="#2F966D" d="M72.542,74.426V29.113h16.052c16.094,0,24.142,7.362,24.142,22.087c0,7.058-2.197,12.693-6.589,16.907
	c-4.392,4.213-10.244,6.319-17.553,6.319H72.542z M82.748,37.424v28.723h5.056c4.424,0,7.895-1.327,10.412-3.981
	c2.517-2.654,3.776-6.267,3.776-10.838c0-4.319-1.248-7.715-3.745-10.191c-2.496-2.476-5.999-3.713-10.506-3.713H82.748z"/>
<path fill="#2F966D" d="M157.123,74.426H146l-3.223-10.08h-16.115l-3.191,10.08H112.41l16.495-45.313h12.103L157.123,74.426z
	 M140.438,56.509l-4.866-15.231c-0.358-1.138-0.611-2.496-0.758-4.076h-0.253c-0.105,1.327-0.369,2.645-0.79,3.95l-4.93,15.357
	H140.438z"/>
<path fill="#2F966D" d="M199.781,74.426h-12.103l-7.805-14.757c-0.296-0.547-0.601-1.559-0.917-3.033h-0.126
	c-0.147,0.695-0.495,1.749-1.043,3.16l-7.836,14.63h-12.166l14.44-22.656l-13.208-22.657h12.418l6.479,13.587
	c0.505,1.075,0.958,2.35,1.358,3.824h0.126c0.253-0.885,0.728-2.201,1.423-3.95l7.204-13.461h11.376l-13.588,22.467L199.781,74.426z
	"/>
<path fill="#2F966D" d="M0,0l53.653,17.76v68.02L0,103.54"/>
<path fill="#FFFFFF" d="M24.939,23.521c-0.32-0.069-0.628-0.051-0.903,0.049c-0.286,0.093-0.539,0.265-0.755,0.5
	c-0.215,0.235-0.394,0.533-0.517,0.879c-0.122,0.345-0.185,0.744-0.185,1.171c0,0.43,0.063,0.85,0.184,1.238
	c0.123,0.396,0.301,0.762,0.517,1.078c0.217,0.316,0.47,0.583,0.755,0.785c0.275,0.2,0.583,0.339,0.903,0.392
	c0.322,0.05,0.628,0.016,0.899-0.089c0.275-0.106,0.519-0.293,0.726-0.527c0.207-0.238,0.369-0.529,0.482-0.866
	c0.12-0.34,0.177-0.721,0.177-1.134c0-0.411-0.057-0.814-0.177-1.195c-0.113-0.379-0.275-0.737-0.482-1.052
	c-0.207-0.313-0.45-0.585-0.726-0.802C25.561,23.737,25.261,23.587,24.939,23.521 M29.779,32.106
	c-0.178-0.028-0.348-0.002-0.506,0.064c-0.159,0.065-0.296,0.176-0.419,0.323c-0.117,0.144-0.215,0.326-0.284,0.532
	c-0.065,0.204-0.102,0.436-0.102,0.68c0,0.246,0.033,0.486,0.102,0.712c0.064,0.221,0.167,0.428,0.284,0.602
	c0.123,0.181,0.261,0.324,0.419,0.432c0.158,0.108,0.328,0.176,0.506,0.2c0.18,0.018,0.351-0.011,0.508-0.079
	c0.15-0.069,0.288-0.183,0.401-0.326c0.12-0.144,0.211-0.326,0.278-0.523c0.063-0.204,0.095-0.427,0.095-0.668
	c0-0.243-0.032-0.478-0.095-0.697c-0.067-0.221-0.156-0.421-0.278-0.6c-0.113-0.176-0.251-0.326-0.401-0.436
	C30.134,32.208,29.961,32.132,29.779,32.106 M27.753,16.093c-0.247-0.069-0.486-0.069-0.701-0.009
	c-0.218,0.061-0.415,0.18-0.581,0.356c-0.166,0.172-0.3,0.396-0.393,0.664c-0.093,0.266-0.144,0.573-0.144,0.916
	c0,0.336,0.05,0.671,0.144,0.986c0.093,0.313,0.227,0.607,0.393,0.871c0.166,0.26,0.363,0.486,0.581,0.665
	c0.214,0.174,0.454,0.296,0.701,0.355c0.25,0.06,0.484,0.054,0.695-0.018c0.211-0.066,0.403-0.196,0.561-0.375
	c0.159-0.176,0.288-0.397,0.377-0.658c0.085-0.262,0.134-0.562,0.134-0.888c0-0.33-0.049-0.65-0.134-0.96
	c-0.089-0.307-0.218-0.602-0.377-0.859c-0.158-0.257-0.351-0.482-0.561-0.666C28.237,16.293,28.002,16.163,27.753,16.093
	 M31.396,70.308c0.081-0.018,0.154-0.034,0.22-0.053c0.064-0.02,0.121-0.038,0.173-0.066c0.044-0.022,0.089-0.047,0.121-0.076
	c0.032-0.028,0.053-0.062,0.069-0.098l-1.914-4.039l5.81-0.837c0.104,0.219,0.201,0.441,0.302,0.652
	c0.101,0.219,0.195,0.43,0.287,0.634c0.09,0.204,0.185,0.403,0.266,0.592c0.089,0.187,0.171,0.366,0.244,0.528l1.626,3.592
	c0.148,0.314,0.229,0.631,0.249,0.927c0.027,0.3-0.007,0.579-0.092,0.821c-0.089,0.258-0.228,0.473-0.416,0.645
	c-0.19,0.172-0.427,0.298-0.705,0.36l-3.574,0.813c-0.299,0.069-0.93,0.211-1.732,0.393c-0.812,0.186-1.811,0.414-2.822,0.645
	c-1.035,0.229-2.086,0.473-2.972,0.671c-0.899,0.204-1.623,0.371-1.973,0.452l-4.505,1.022c-0.385,0.088-0.713,0.077-0.975-0.016
	c-0.264-0.092-0.46-0.269-0.58-0.517c-0.125-0.242-0.176-0.563-0.138-0.928c0.03-0.366,0.15-0.788,0.353-1.239l2.216-4.953
	c0.009-0.022,0.029-0.043,0.053-0.059c0.02-0.019,0.048-0.034,0.085-0.051c0.034-0.017,0.073-0.031,0.122-0.044
	c0.044-0.013,0.097-0.02,0.154-0.031c0.225-0.037,0.528-0.053,0.885-0.056c0.359-0.006,0.776,0.006,1.228,0.027
	c0.454,0.024,0.937,0.047,1.445,0.081c0.498,0.038,1.019,0.073,1.529,0.109c0.513,0.039,1.019,0.073,1.512,0.103
	c0.486,0.03,0.952,0.051,1.386,0.065c0.432,0.014,0.83,0.016,1.179,0.006c0.349-0.006,0.651-0.037,0.885-0.074 M36.835,40.269
	l-2.123-0.177l-9.377-0.79l-2.609-0.219c-0.367-0.031-0.642,0.046-0.849,0.179c-0.208,0.135-0.346,0.321-0.438,0.514
	c-0.093,0.195-0.138,0.393-0.16,0.539c-0.024,0.154-0.024,0.249-0.024,0.249c0,0.42,0,0.781,0.024,1.092
	c0.022,0.312,0.069,0.576,0.16,0.784c0.09,0.209,0.229,0.368,0.437,0.48c0.211,0.111,0.482,0.174,0.849,0.196l2.609,0.132v7.545
	l-3.863,8.286c-0.201,0.424-0.427,0.913-0.67,1.44c-0.246,0.528-0.507,1.094-0.768,1.658c-0.264,0.57-0.529,1.14-0.78,1.674
	c-0.248,0.542-0.486,1.048-0.689,1.485L9.606,84.591c-0.237,0.512-0.371,0.965-0.407,1.364c-0.041,0.4,0.016,0.733,0.158,0.988
	c0.142,0.257,0.365,0.43,0.667,0.508c0.299,0.078,0.677,0.062,1.12-0.06l16.677-4.719c0.334-0.096,0.717-0.2,1.126-0.32
	c0.407-0.115,0.836-0.234,1.264-0.358c0.421-0.117,0.842-0.237,1.238-0.348c0.385-0.112,0.752-0.214,1.064-0.303l12.027-3.401
	c0.25-0.068,0.456-0.196,0.622-0.364c0.162-0.168,0.288-0.376,0.365-0.614c0.073-0.235,0.102-0.5,0.085-0.779
	c-0.021-0.275-0.094-0.567-0.219-0.868L39.9,62.659c-0.138-0.328-0.306-0.707-0.484-1.112c-0.174-0.415-0.365-0.848-0.553-1.283
	c-0.189-0.442-0.379-0.886-0.562-1.304c-0.18-0.419-0.351-0.815-0.496-1.157l-3.094-7.117v-6.961l2.123,0.111
	c0.284,0.015,0.491-0.016,0.645-0.095c0.149-0.081,0.249-0.206,0.306-0.381c0.058-0.172,0.083-0.394,0.097-0.66
	c0.006-0.265,0.004-0.579,0.004-0.942c0,0,0.002-0.087-0.004-0.219c-0.014-0.132-0.039-0.308-0.098-0.488
	c-0.057-0.178-0.156-0.363-0.306-0.507C37.325,40.396,37.122,40.291,36.835,40.269"/>
</svg>
