<svg width="600" height="642" viewBox="0 0 600 642" fill="none" xmlns="http://www.w3.org/2000/svg">
<path d="M254.96 130.283L147.807 76.1953L30.2119 134.884L140.262 190.149L254.96 130.283Z" fill="#4DABCF"/>
<path d="M304.074 155.07L416.418 211.776L299.86 270.31L189.64 214.952L304.074 155.07Z" fill="#4DABCF"/>
<path d="M454.113 77.0156L569.523 134.883L466.306 186.724L353.73 129.941L454.113 77.0156Z" fill="#4DABCF"/>
<path d="M404.441 52.0888L300.541 0L197.758 51.2831L304.818 105.278L404.441 52.0888Z" fill="#4DABCF"/>
<path d="M323.21 499.497V641.277L449.079 578.467L448.939 436.625L323.21 499.497Z" fill="#4DABCF"/>
<path d="M448.893 387.128L448.754 246.773L323.21 309.181V449.582L448.893 387.128Z" fill="#4DABCF"/>
<path d="M600 360.82V503.158L492.646 556.734L492.568 415.047L600 360.82Z" fill="#4DABCF"/>
<path d="M599.999 311.042V171.57L492.443 225.038L492.536 365.672L599.999 311.042Z" fill="#4DABCF"/>
<path d="M278.774 309.167L193.994 266.545V450.777C193.994 450.777 90.3114 230.166 80.7055 210.35C79.466 207.794 74.3686 204.989 73.0672 204.308C54.475 194.547 0 166.953 0 166.953V492.438L75.3602 532.721V362.588C75.3602 362.588 177.942 559.711 178.981 561.864C180.019 564.018 190.322 584.794 201.322 592.092C215.979 601.791 278.789 639.564 278.789 639.564L278.774 309.167Z" fill="#4D77CF"/>
</svg>
